<svg xmlns="http://www.w3.org/2000/svg" width="1330" height="848" viewBox="0 0 332.6 212.0" font-family="sans-serif">
<rect width="100%" height="100%" fill="#fff"/>
<text x="20" y="12" font-size="7" font-weight="bold">v1 — VERDE MILITAR · 142 cm · limite 800</text>
<text x="20" y="22" font-size="5">2.93 m · 1 parte(s) · aprov. médio 54.5% · pior 54.5% · 0.1s</text>
<text x="20" y="32" font-size="4.5">Parte 1: 292.6 cm · 54.5%</text>
<rect x="20" y="35" width="292.59" height="142.0" fill="#f4f4f4" stroke="#999" stroke-width="0.4"/>
<rect x="20" y="35" width="150.0" height="142.0" fill="none" stroke="#c00" stroke-width="0.3" stroke-dasharray="2 2"/>
<polygon points="20.73,62.40 20.64,59.29 20.54,56.18 20.42,53.07 20.29,50.02 20.15,46.97 20.00,43.92 25.14,43.08 30.30,42.30 35.45,41.59 40.62,40.95 44.09,40.57 47.57,40.22 54.53,39.59 68.46,38.39 82.49,37.03 89.50,36.38 93.01,36.09 96.52,35.83 99.28,35.66 102.04,35.51 107.57,35.27 113.11,35.10 118.65,35.00 118.65,62.20 104.63,61.61 97.62,61.31 90.60,60.93 82.27,60.37 73.94,59.83 69.79,59.62 67.72,59.54 65.65,59.48 63.58,59.44 61.52,59.43 59.46,59.45 57.41,59.49 56.06,59.54 54.72,59.59 52.03,59.72 49.30,59.83 47.92,59.86 46.53,59.88 45.08,59.89 43.64,59.98 42.94,60.09 42.26,60.26 41.61,60.50 40.98,60.82 40.44,61.20 40.02,61.68 39.84,62.02 39.73,62.40 39.84,62.78 40.02,63.13 40.44,63.60 40.98,63.98 41.61,64.31 42.26,64.54 42.94,64.71 43.64,64.82 45.08,64.91 46.53,64.92 47.92,64.94 49.30,64.98 50.67,65.03 52.03,65.08 57.41,65.31 59.46,65.36 61.52,65.37 63.58,65.36 65.65,65.32 67.72,65.26 69.79,65.18 73.94,64.97 78.11,64.71 82.27,64.43 90.60,63.88 97.62,63.50 104.63,63.19 118.65,62.60 118.65,89.80 113.11,89.70 107.57,89.54 102.04,89.30 96.52,88.97 93.01,88.72 89.50,88.43 82.49,87.78 68.46,86.41 54.53,85.22 47.57,84.59 44.09,84.24 40.62,83.86 38.04,83.55 35.45,83.22 30.30,82.50 25.14,81.72 20.00,80.89 20.15,77.84 20.29,74.79 20.42,71.73 20.54,68.62 20.64,65.51 20.73,62.40" fill="#4e79a7" fill-opacity="0.75" stroke="#222" stroke-width="0.25"/>
<text x="58.8" y="62.3" font-size="3.2" text-anchor="middle">FRENTE G</text>
<polygon points="20.73,116.21 20.64,113.26 20.53,110.32 20.42,107.38 20.29,104.49 20.15,101.61 20.00,98.72 25.04,97.89 30.09,97.12 35.14,96.41 40.20,95.77 43.60,95.39 47.01,95.04 53.83,94.41 67.48,93.22 81.22,91.86 88.09,91.21 91.53,90.92 94.97,90.66 97.67,90.48 100.38,90.33 105.80,90.09 111.22,89.92 116.65,89.80 116.65,116.00 102.81,115.43 95.89,115.12 88.96,114.75 80.73,114.20 72.51,113.67 68.41,113.46 66.36,113.38 64.32,113.32 62.28,113.28 60.24,113.27 58.21,113.29 56.18,113.33 54.86,113.38 53.53,113.43 50.87,113.56 48.18,113.66 46.82,113.70 45.44,113.72 44.01,113.73 42.59,113.82 41.90,113.93 41.23,114.09 40.58,114.33 39.96,114.64 39.44,115.02 39.02,115.49 38.84,115.83 38.73,116.21 38.84,116.58 39.02,116.92 39.44,117.39 39.96,117.77 40.58,118.09 41.23,118.32 41.90,118.48 42.59,118.59 44.01,118.68 45.44,118.70 46.82,118.71 48.18,118.75 49.53,118.80 50.87,118.85 56.18,119.08 58.21,119.12 60.24,119.14 62.28,119.13 64.32,119.09 66.36,119.03 68.41,118.95 72.51,118.74 76.62,118.49 80.73,118.21 88.96,117.66 95.89,117.29 102.81,116.98 116.65,116.41 116.65,142.61 111.22,142.50 105.80,142.32 100.38,142.08 94.97,141.75 91.53,141.49 88.09,141.20 81.22,140.56 67.48,139.19 53.83,138.00 47.01,137.37 43.60,137.02 40.20,136.64 37.67,136.33 35.14,136.00 30.09,135.29 25.04,134.52 20.00,133.69 20.15,130.80 20.29,127.92 20.42,125.03 20.53,122.09 20.64,119.15 20.73,116.21" fill="#4e79a7" fill-opacity="0.75" stroke="#222" stroke-width="0.25"/>
<text x="57.7" y="116.1" font-size="3.2" text-anchor="middle">FRENTE M</text>
<polygon points="118.74,102.56 120.23,102.35 121.68,102.03 123.02,101.62 124.34,101.12 125.62,100.52 126.86,99.84 128.07,99.07 129.20,98.21 130.23,97.24 131.13,96.17 131.89,94.95 132.53,93.64 133.07,92.28 133.56,90.90 133.93,89.80 137.82,90.56 141.71,91.28 145.61,91.95 149.52,92.59 153.02,93.12 156.52,93.62 160.03,94.08 163.54,94.51 166.78,94.88 170.02,95.21 173.27,95.52 176.51,95.80 179.76,96.04 183.01,96.26 186.26,96.45 189.52,96.61 192.78,96.74 196.04,96.84 199.30,96.90 202.57,96.94 205.84,96.95 209.11,96.94 212.39,96.89 215.66,96.81 215.66,128.31 205.16,127.85 194.66,127.28 180.30,126.31 165.95,125.27 149.42,124.15 141.16,123.56 132.91,122.91 124.96,122.19 117.01,121.39 116.82,119.71 116.70,118.02 116.65,116.25 116.67,114.48 116.77,112.72 116.93,110.96 117.25,108.67 117.69,106.40 118.17,104.47 118.74,102.56" fill="#f28e2b" fill-opacity="0.75" stroke="#222" stroke-width="0.25"/>
<text x="151.8" y="103.5" font-size="3.2" text-anchor="middle">COSTAS G</text>
<polygon points="118.74,141.07 120.23,140.85 121.68,140.53 123.02,140.13 124.34,139.62 125.62,139.03 126.86,138.35 128.07,137.57 129.20,136.71 130.23,135.75 131.13,134.67 131.89,133.45 132.53,132.15 133.07,130.79 133.56,129.41 133.93,128.31 137.82,129.07 141.71,129.78 145.61,130.46 149.52,131.09 153.02,131.62 156.52,132.12 160.03,132.59 163.54,133.02 166.78,133.38 170.02,133.72 173.27,134.03 176.51,134.30 179.76,134.55 183.01,134.77 186.26,134.96 189.52,135.11 192.78,135.24 196.04,135.34 199.30,135.41 202.57,135.45 205.84,135.46 209.11,135.44 212.39,135.39 215.66,135.32 215.66,166.82 205.16,166.35 194.66,165.79 180.30,164.81 165.95,163.77 149.42,162.65 141.16,162.07 132.91,161.41 124.96,160.69 117.01,159.90 116.82,158.21 116.70,156.52 116.65,154.76 116.67,152.99 116.77,151.22 116.93,149.46 117.25,147.17 117.69,144.90 118.17,142.98 118.74,141.07" fill="#f28e2b" fill-opacity="0.75" stroke="#222" stroke-width="0.25"/>
<text x="151.8" y="142.0" font-size="3.2" text-anchor="middle">COSTAS G</text>
<polygon points="120.70,47.76 122.12,47.51 123.50,47.15 124.78,46.71 126.03,46.19 127.24,45.58 128.42,44.88 129.55,44.10 130.61,43.23 131.57,42.27 132.40,41.21 133.10,40.01 133.66,38.73 134.14,37.41 134.57,36.07 134.89,35.00 138.73,35.75 142.57,36.46 146.42,37.13 150.28,37.76 153.74,38.29 157.20,38.79 160.66,39.25 164.13,39.68 167.33,40.05 170.53,40.38 173.74,40.69 176.94,40.97 180.15,41.21 183.36,41.43 186.58,41.62 189.79,41.78 193.01,41.91 196.23,42.01 199.46,42.08 202.69,42.13 205.91,42.14 209.15,42.12 212.38,42.08 215.62,42.01 215.62,72.51 205.33,72.04 195.04,71.47 180.98,70.49 166.91,69.45 150.72,68.33 142.63,67.75 134.54,67.10 126.75,66.38 118.97,65.59 118.80,63.99 118.69,62.39 118.65,60.72 118.68,59.04 118.78,57.37 118.94,55.70 119.25,53.53 119.68,51.39 120.15,49.56 120.70,47.76" fill="#f28e2b" fill-opacity="0.75" stroke="#222" stroke-width="0.25"/>
<text x="152.9" y="48.4" font-size="3.2" text-anchor="middle">COSTAS M</text>
<polygon points="217.67,47.76 219.09,47.51 220.48,47.15 221.75,46.71 223.00,46.19 224.21,45.58 225.39,44.88 226.52,44.10 227.58,43.23 228.54,42.27 229.37,41.21 230.07,40.01 230.63,38.73 231.11,37.41 231.54,36.07 231.86,35.00 235.70,35.75 239.54,36.46 243.39,37.13 247.25,37.76 250.71,38.29 254.17,38.79 257.64,39.25 261.10,39.68 264.30,40.05 267.50,40.38 270.71,40.69 273.91,40.97 277.12,41.21 280.33,41.43 283.55,41.62 286.76,41.78 289.98,41.91 293.20,42.01 296.43,42.08 299.66,42.13 302.89,42.14 306.12,42.12 309.35,42.08 312.59,42.01 312.59,72.51 302.30,72.04 292.01,71.47 277.95,70.49 263.88,69.45 247.69,68.33 239.60,67.75 231.51,67.10 223.72,66.38 215.94,65.59 215.77,63.99 215.66,62.39 215.62,60.72 215.65,59.04 215.75,57.37 215.91,55.70 216.22,53.53 216.65,51.39 217.12,49.56 217.67,47.76" fill="#f28e2b" fill-opacity="0.75" stroke="#222" stroke-width="0.25"/>
<text x="249.9" y="48.4" font-size="3.2" text-anchor="middle">COSTAS M</text>
<polygon points="230.66,106.58 221.02,108.06 221.02,108.06 221.08,106.14 221.02,104.21 220.87,102.82 220.63,101.45 220.31,100.08 219.93,98.73 219.14,96.39 218.67,95.26 218.15,94.15 217.61,93.15 217.01,92.17 216.36,91.21 215.66,90.28 216.36,89.36 217.01,88.40 217.61,87.42 218.15,86.42 218.67,85.31 219.14,84.18 219.93,81.84 220.31,80.49 220.63,79.12 220.87,77.75 221.02,76.36 221.08,74.43 221.02,72.51 221.02,72.51 230.66,73.98 240.31,72.51 240.31,72.51 240.25,74.43 240.30,76.36 240.46,77.75 240.70,79.12 241.02,80.49 241.40,81.84 242.19,84.18 242.65,85.31 243.17,86.42 243.72,87.42 244.32,88.40 244.97,89.36 245.66,90.28 244.97,91.21 244.32,92.17 243.72,93.15 243.17,94.15 242.65,95.26 242.19,96.39 241.40,98.73 241.02,100.08 240.70,101.45 240.46,102.82 240.30,104.21 240.25,106.14 240.31,108.06 240.31,108.06 230.66,106.58" fill="#59a14f" fill-opacity="0.75" stroke="#222" stroke-width="0.25"/>
<text x="230.7" y="90.6" font-size="3.2" text-anchor="middle">CÓS COSTAS G</text>
<polygon points="230.66,140.14 221.02,141.62 221.02,141.62 221.04,139.79 220.96,137.97 220.80,136.65 220.54,135.35 220.22,134.06 219.84,132.78 219.05,130.58 218.60,129.51 218.09,128.47 217.55,127.53 216.97,126.61 216.34,125.71 215.66,124.84 216.34,123.97 216.97,123.08 217.55,122.16 218.09,121.21 218.60,120.17 219.05,119.10 219.84,116.90 220.22,115.63 220.54,114.34 220.80,113.03 220.96,111.72 221.04,109.89 221.02,108.07 221.02,108.06 230.66,109.54 240.31,108.06 240.31,108.07 240.29,109.89 240.36,111.72 240.53,113.03 240.78,114.34 241.11,115.63 241.49,116.90 242.28,119.10 242.73,120.17 243.24,121.21 243.77,122.16 244.36,123.08 244.99,123.97 245.66,124.84 244.99,125.71 244.36,126.61 243.77,127.53 243.24,128.47 242.73,129.51 242.28,130.58 241.49,132.78 241.11,134.06 240.78,135.35 240.53,136.65 240.36,137.97 240.29,139.79 240.31,141.62 240.31,141.62 230.66,140.14" fill="#59a14f" fill-opacity="0.75" stroke="#222" stroke-width="0.25"/>
<text x="230.7" y="125.1" font-size="3.2" text-anchor="middle">CÓS COSTAS M</text>
<polygon points="255.16,107.31 245.66,109.51 245.66,91.01 245.66,72.51 255.16,74.71 264.66,72.51 264.66,91.01 264.66,109.51 255.16,107.31" fill="#e15759" fill-opacity="0.75" stroke="#222" stroke-width="0.25"/>
<text x="255.2" y="92.8" font-size="3.2" text-anchor="middle">CÓS FRENTE G</text>
<polygon points="225.16,174.42 215.66,176.62 215.66,159.12 215.66,141.62 225.16,143.82 234.66,141.62 234.66,159.12 234.66,176.62 225.16,174.42" fill="#e15759" fill-opacity="0.75" stroke="#222" stroke-width="0.25"/>
<text x="225.2" y="160.8" font-size="3.2" text-anchor="middle">CÓS FRENTE M</text>
</svg>