<svg xmlns="http://www.w3.org/2000/svg" width="2884" height="880" viewBox="0 0 720.9 220.0" font-family="sans-serif">
<rect width="100%" height="100%" fill="#fff"/>
<text x="20" y="12" font-size="7" font-weight="bold">SVGnest corrigido (B2) — PRETO · 150 cm · 150 cm</text>
<text x="20" y="22" font-size="5">6.01 m · 5 parte(s) · aprov. médio 74.7% · pior 71.7% · 15.6s</text>
<text x="20" y="32" font-size="4.5">Parte 1: 149.0 cm · 71.7%</text>
<rect x="20" y="35" width="149.01" height="150.0" fill="#f4f4f4" stroke="#999" stroke-width="0.4"/>
<rect x="20" y="35" width="150" height="150.0" fill="none" stroke="#c00" stroke-width="0.3" stroke-dasharray="2 2"/>
<polygon points="20.73,62.50 20.64,59.39 20.54,56.28 20.42,53.17 20.29,50.12 20.15,47.07 20.00,44.02 25.14,43.18 30.30,42.40 35.45,41.69 40.62,41.05 44.09,40.67 47.57,40.32 54.53,39.69 68.46,38.49 82.49,37.13 89.50,36.48 93.01,36.19 96.52,35.93 99.28,35.76 102.04,35.61 107.57,35.37 113.11,35.20 118.65,35.10 118.65,62.30 104.63,61.71 97.62,61.41 90.60,61.03 82.27,60.47 73.94,59.93 69.79,59.72 67.72,59.64 65.65,59.58 63.58,59.54 61.52,59.53 59.46,59.55 57.41,59.59 56.06,59.64 54.72,59.69 52.03,59.82 49.30,59.93 47.92,59.96 46.53,59.98 45.08,59.99 43.64,60.08 42.94,60.19 42.26,60.36 41.61,60.60 40.98,60.92 40.44,61.30 40.02,61.78 39.84,62.12 39.73,62.50 39.84,62.88 40.02,63.23 40.44,63.70 40.98,64.08 41.61,64.41 42.26,64.64 42.94,64.81 43.64,64.92 45.08,65.01 46.53,65.02 47.92,65.04 49.30,65.08 50.67,65.13 52.03,65.18 57.41,65.41 59.46,65.46 61.52,65.47 63.58,65.46 65.65,65.42 67.72,65.36 69.79,65.28 73.94,65.07 78.11,64.81 82.27,64.53 90.60,63.98 97.62,63.60 104.63,63.29 118.65,62.70 118.65,89.90 113.11,89.80 107.57,89.64 102.04,89.40 96.52,89.07 93.01,88.82 89.50,88.53 82.49,87.88 68.46,86.51 54.53,85.32 47.57,84.69 44.09,84.34 40.62,83.96 38.04,83.65 35.45,83.32 30.30,82.60 25.14,81.82 20.00,80.99 20.15,77.94 20.29,74.89 20.42,71.83 20.54,68.72 20.64,65.61" fill="#4e79a7" fill-opacity="0.75" stroke="#222" stroke-width="0.25"/>
<text x="59.1" y="62.4" font-size="3.2" text-anchor="middle">FRENTE G</text>
<polygon points="20.73,117.50 20.64,114.39 20.54,111.28 20.42,108.17 20.29,105.12 20.15,102.07 20.00,99.02 25.14,98.19 30.30,97.41 35.45,96.69 40.62,96.05 44.09,95.67 47.57,95.32 54.53,94.69 68.46,93.49 82.49,92.13 89.50,91.48 93.01,91.19 96.52,90.94 99.28,90.76 102.04,90.61 107.57,90.37 113.11,90.21 118.65,90.10 118.65,117.30 104.63,116.72 97.62,116.41 90.60,116.03 82.27,115.48 73.94,114.94 69.79,114.73 67.72,114.65 65.65,114.59 63.58,114.55 61.52,114.53 59.46,114.55 57.41,114.60 56.06,114.64 54.72,114.70 52.03,114.82 49.30,114.93 47.92,114.97 46.53,114.98 45.08,115.00 43.64,115.09 42.94,115.20 42.26,115.36 41.61,115.60 40.98,115.92 40.44,116.30 40.02,116.78 39.84,117.12 39.73,117.51 39.84,117.89 40.02,118.23 40.44,118.71 40.98,119.09 41.61,119.41 42.26,119.65 42.94,119.81 43.64,119.92 45.08,120.01 46.53,120.03 47.92,120.04 49.30,120.08 50.67,120.13 52.03,120.19 57.41,120.42 59.46,120.46 61.52,120.48 63.58,120.46 65.65,120.42 67.72,120.36 69.79,120.28 73.94,120.07 78.11,119.82 82.27,119.53 90.60,118.98 97.62,118.60 104.63,118.29 118.65,117.71 118.65,144.91 113.11,144.80 107.57,144.64 102.04,144.40 96.52,144.08 93.01,143.82 89.50,143.53 82.49,142.88 68.46,141.52 54.53,140.32 47.57,139.69 44.09,139.34 40.62,138.96 38.04,138.65 35.45,138.32 30.30,137.60 25.14,136.82 20.00,135.99 20.15,132.94 20.29,129.89 20.42,126.84 20.54,123.73 20.64,120.62" fill="#4e79a7" fill-opacity="0.75" stroke="#222" stroke-width="0.25"/>
<text x="59.1" y="117.4" font-size="3.2" text-anchor="middle">FRENTE G</text>
<polygon points="22.09,151.46 23.58,151.24 25.03,150.92 26.37,150.51 27.69,150.01 28.97,149.42 30.21,148.73 31.42,147.96 32.55,147.10 33.58,146.13 34.48,145.06 35.24,143.84 35.88,142.53 36.42,141.17 36.91,139.80 37.28,138.70 41.17,139.45 45.06,140.17 48.96,140.85 52.87,141.48 56.37,142.01 59.87,142.51 63.38,142.97 66.89,143.41 70.13,143.77 73.37,144.11 76.62,144.41 79.86,144.69 83.11,144.94 86.36,145.15 89.61,145.34 92.87,145.50 96.13,145.63 99.39,145.73 102.65,145.80 105.92,145.84 109.19,145.85 112.46,145.83 115.74,145.78 119.01,145.70 119.01,177.20 108.51,176.74 98.01,176.17 83.65,175.20 69.30,174.16 52.77,173.04 44.51,172.46 36.26,171.80 28.31,171.08 20.37,170.29 20.17,168.60 20.05,166.91 20.00,165.15 20.02,163.38 20.12,161.61 20.28,159.85 20.60,157.56 21.04,155.29 21.52,153.36" fill="#f28e2b" fill-opacity="0.75" stroke="#222" stroke-width="0.25"/>
<text x="55.7" y="152.4" font-size="3.2" text-anchor="middle">COSTAS G</text>
<polygon points="133.73,101.22 143.38,99.74 143.38,99.74 143.32,101.67 143.37,103.59 143.52,104.98 143.77,106.36 144.09,107.72 144.47,109.08 145.26,111.41 145.72,112.54 146.24,113.65 146.78,114.66 147.38,115.64 148.03,116.59 148.73,117.52 148.03,118.44 147.38,119.40 146.78,120.38 146.24,121.39 145.72,122.49 145.26,123.63 144.47,125.96 144.09,127.31 143.77,128.68 143.52,130.05 143.37,131.44 143.32,133.37 143.38,135.29 143.38,135.30 133.73,133.82 124.08,135.30 124.08,135.29 124.14,133.37 124.09,131.44 123.94,130.05 123.69,128.68 123.37,127.31 122.99,125.96 122.20,123.63 121.74,122.49 121.22,121.39 120.68,120.38 120.08,119.40 119.43,118.44 118.73,117.52 119.43,116.59 120.08,115.64 120.68,114.66 121.22,113.65 121.74,112.54 122.20,111.41 122.99,109.08 123.37,107.72 123.69,106.36 123.94,104.98 124.09,103.59 124.14,101.67 124.08,99.74 124.08,99.74" fill="#59a14f" fill-opacity="0.75" stroke="#222" stroke-width="0.25"/>
<text x="133.7" y="117.5" font-size="3.2" text-anchor="middle">CÓS COSTAS G ↻</text>
<polygon points="133.73,78.81 124.08,80.29 124.08,80.29 124.14,78.36 124.09,76.44 123.94,75.05 123.69,73.67 123.37,72.31 122.99,70.95 122.20,68.62 121.74,67.49 121.22,66.38 120.68,65.37 120.08,64.39 119.43,63.44 118.73,62.51 119.43,61.59 120.08,60.63 120.68,59.65 121.22,58.64 121.74,57.54 122.20,56.40 122.99,54.07 123.37,52.72 123.69,51.35 123.94,49.97 124.09,48.59 124.14,46.66 124.08,44.74 124.08,44.73 133.73,46.21 143.38,44.73 143.38,44.74 143.32,46.66 143.37,48.59 143.52,49.97 143.77,51.35 144.09,52.72 144.47,54.07 145.26,56.40 145.72,57.54 146.24,58.64 146.78,59.65 147.38,60.63 148.03,61.59 148.73,62.51 148.03,63.44 147.38,64.39 146.78,65.37 146.24,66.38 145.72,67.49 145.26,68.62 144.47,70.95 144.09,72.31 143.77,73.67 143.52,75.05 143.37,76.44 143.32,78.36 143.38,80.29 143.38,80.29" fill="#59a14f" fill-opacity="0.75" stroke="#222" stroke-width="0.25"/>
<text x="133.7" y="62.5" font-size="3.2" text-anchor="middle">CÓS COSTAS G</text>
<polygon points="134.20,167.50 124.55,168.98 124.55,168.98 124.58,167.15 124.50,165.33 124.33,164.01 124.08,162.71 123.75,161.42 123.37,160.14 122.59,157.94 122.13,156.87 121.62,155.83 121.09,154.88 120.51,153.96 119.88,153.07 119.20,152.20 119.88,151.33 120.51,150.44 121.09,149.52 121.62,148.57 122.13,147.53 122.59,146.46 123.37,144.26 123.75,142.98 124.08,141.69 124.33,140.39 124.50,139.08 124.58,137.25 124.55,135.42 124.55,135.42 134.20,136.90 143.85,135.42 143.85,135.42 143.82,137.25 143.90,139.08 144.06,140.39 144.32,141.69 144.64,142.98 145.03,144.26 145.81,146.46 146.27,147.53 146.78,148.57 147.31,149.52 147.89,150.44 148.52,151.33 149.20,152.20 148.52,153.07 147.89,153.96 147.31,154.88 146.78,155.83 146.27,156.87 145.81,157.94 145.03,160.14 144.64,161.42 144.32,162.71 144.06,164.01 143.90,165.33 143.82,167.15 143.85,168.98 143.85,168.98" fill="#59a14f" fill-opacity="0.75" stroke="#222" stroke-width="0.25"/>
<text x="134.2" y="152.2" font-size="3.2" text-anchor="middle">CÓS COSTAS M</text>
<polygon points="154.01,73.84 163.66,72.36 163.66,72.36 163.60,74.29 163.65,76.21 163.80,77.60 164.05,78.98 164.37,80.34 164.75,81.70 165.54,84.03 166.00,85.16 166.52,86.27 167.06,87.28 167.66,88.26 168.31,89.21 169.01,90.14 168.31,91.07 167.66,92.02 167.06,93.00 166.52,94.01 166.00,95.11 165.54,96.25 164.75,98.58 164.37,99.93 164.05,101.30 163.80,102.68 163.65,104.06 163.60,105.99 163.66,107.92 163.66,107.92 154.01,106.44 144.36,107.92 144.36,107.92 144.42,105.99 144.37,104.06 144.22,102.68 143.97,101.30 143.65,99.93 143.27,98.58 142.48,96.25 142.02,95.11 141.50,94.01 140.96,93.00 140.36,92.02 139.71,91.07 139.01,90.14 139.71,89.21 140.36,88.26 140.96,87.28 141.50,86.27 142.02,85.16 142.48,84.03 143.27,81.70 143.65,80.34 143.97,78.98 144.22,77.60 144.37,76.21 144.42,74.29 144.36,72.36 144.36,72.36" fill="#59a14f" fill-opacity="0.75" stroke="#222" stroke-width="0.25"/>
<text x="154.0" y="90.1" font-size="3.2" text-anchor="middle">CÓS COSTAS G ↻</text>
<polygon points="158.42,116.75 167.92,114.55 167.92,133.05 167.92,151.55 158.42,149.35 148.92,151.55 148.92,133.05 148.92,114.55" fill="#e15759" fill-opacity="0.75" stroke="#222" stroke-width="0.25"/>
<text x="158.4" y="133.0" font-size="3.2" text-anchor="middle">CÓS FRENTE G ↻</text>
<polygon points="158.42,70.66 148.92,72.86 148.92,55.36 148.92,37.86 158.42,40.06 167.92,37.86 167.92,55.36 167.92,72.86" fill="#e15759" fill-opacity="0.75" stroke="#222" stroke-width="0.25"/>
<text x="158.4" y="55.4" font-size="3.2" text-anchor="middle">CÓS FRENTE M</text>
<text x="189.00888294000003" y="32" font-size="4.5">Parte 2: 141.8 cm · 74.0%</text>
<rect x="189.00888294000003" y="35" width="141.76" height="150.0" fill="#f4f4f4" stroke="#999" stroke-width="0.4"/>
<rect x="189.00888294000003" y="35" width="150" height="150.0" fill="none" stroke="#c00" stroke-width="0.3" stroke-dasharray="2 2"/>
<polygon points="286.93,62.50 287.02,65.61 287.12,68.72 287.24,71.83 287.36,74.89 287.50,77.94 287.66,80.99 282.51,81.82 277.36,82.60 272.20,83.32 267.04,83.96 263.56,84.34 260.09,84.69 253.13,85.32 239.20,86.51 225.17,87.88 218.16,88.53 214.65,88.82 211.14,89.07 208.38,89.25 205.61,89.40 200.08,89.64 194.55,89.80 189.01,89.90 189.01,62.70 203.02,63.29 210.04,63.60 217.06,63.98 225.39,64.53 233.71,65.07 237.87,65.28 239.94,65.36 242.01,65.42 244.08,65.46 246.14,65.47 248.20,65.46 250.25,65.41 251.59,65.37 252.94,65.31 255.63,65.18 258.36,65.08 259.74,65.04 261.13,65.02 262.58,65.01 264.02,64.92 264.71,64.81 265.39,64.64 266.05,64.41 266.68,64.08 267.21,63.70 267.64,63.23 267.81,62.88 267.93,62.50 267.81,62.12 267.64,61.78 267.21,61.30 266.68,60.92 266.05,60.60 265.39,60.36 264.71,60.19 264.02,60.09 262.58,59.99 261.13,59.98 259.74,59.96 258.36,59.93 256.99,59.88 255.63,59.82 250.25,59.59 248.20,59.55 246.14,59.53 244.08,59.54 242.01,59.58 239.94,59.64 237.87,59.72 233.71,59.93 229.55,60.19 225.39,60.47 217.06,61.03 210.04,61.41 203.02,61.71 189.01,62.30 189.01,35.10 194.55,35.20 200.08,35.37 205.61,35.61 211.14,35.93 214.65,36.19 218.16,36.48 225.17,37.13 239.20,38.49 253.13,39.69 260.09,40.32 263.56,40.67 267.04,41.05 269.62,41.36 272.20,41.69 277.36,42.40 282.51,43.18 287.66,44.02 287.50,47.07 287.36,50.12 287.24,53.17 287.12,56.28 287.02,59.39" fill="#4e79a7" fill-opacity="0.75" stroke="#222" stroke-width="0.25"/>
<text x="248.5" y="62.6" font-size="3.2" text-anchor="middle">FRENTE G ↻</text>
<polygon points="189.74,109.97 189.65,107.02 189.54,104.08 189.43,101.14 189.30,98.25 189.16,95.37 189.01,92.48 194.05,91.66 199.09,90.88 204.15,90.17 209.21,89.53 212.61,89.15 216.02,88.81 222.84,88.18 236.49,86.98 250.23,85.62 257.10,84.97 260.53,84.68 263.97,84.42 266.68,84.24 269.39,84.09 274.81,83.85 280.23,83.68 285.66,83.57 285.66,109.77 271.82,109.19 264.90,108.88 257.96,108.51 249.74,107.96 241.52,107.43 237.42,107.22 235.37,107.14 233.33,107.08 231.29,107.05 229.25,107.03 227.22,107.05 225.19,107.09 223.87,107.14 222.54,107.20 219.88,107.32 217.19,107.42 215.83,107.46 214.45,107.48 213.02,107.49 211.60,107.58 210.91,107.69 210.24,107.85 209.59,108.09 208.97,108.40 208.44,108.78 208.02,109.25 207.85,109.59 207.74,109.97 207.85,110.34 208.02,110.68 208.44,111.15 208.97,111.53 209.59,111.85 210.24,112.08 210.91,112.25 211.60,112.35 213.02,112.44 214.45,112.46 215.83,112.47 217.19,112.51 218.54,112.56 219.88,112.62 225.19,112.84 227.22,112.89 229.25,112.90 231.29,112.89 233.33,112.85 235.37,112.79 237.42,112.71 241.52,112.50 245.63,112.25 249.74,111.97 257.96,111.42 264.90,111.05 271.82,110.75 285.66,110.17 285.66,136.37 280.23,136.26 274.81,136.09 269.39,135.84 263.97,135.51 260.53,135.26 257.10,134.97 250.23,134.32 236.49,132.96 222.84,131.76 216.02,131.13 212.61,130.78 209.21,130.40 206.68,130.09 204.15,129.76 199.09,129.05 194.05,128.28 189.01,127.45 189.16,124.57 189.30,121.68 189.43,118.79 189.54,115.85 189.65,112.91" fill="#4e79a7" fill-opacity="0.75" stroke="#222" stroke-width="0.25"/>
<text x="227.1" y="109.9" font-size="3.2" text-anchor="middle">FRENTE M</text>
<polygon points="282.93,155.21 283.02,157.99 283.13,160.76 283.24,163.53 283.37,166.25 283.51,168.98 283.66,171.70 278.72,172.51 273.78,173.28 268.83,173.99 263.88,174.62 260.55,175.00 257.21,175.35 250.53,175.98 237.17,177.18 223.71,178.54 216.98,179.18 213.62,179.47 210.25,179.73 207.60,179.91 204.94,180.07 199.64,180.31 194.33,180.49 189.01,180.61 189.01,155.41 202.67,155.98 209.50,156.28 216.35,156.65 224.47,157.19 232.58,157.72 236.63,157.92 238.65,158.00 240.67,158.06 242.68,158.09 244.69,158.11 246.70,158.09 248.70,158.05 250.01,158.00 251.32,157.95 253.94,157.83 256.60,157.72 257.94,157.69 259.30,157.67 260.72,157.66 262.11,157.57 262.80,157.46 263.46,157.30 264.10,157.07 264.71,156.75 265.23,156.38 265.65,155.92 265.82,155.58 265.93,155.21 265.82,154.84 265.65,154.51 265.23,154.04 264.71,153.67 264.10,153.35 263.46,153.12 262.80,152.96 262.11,152.85 260.72,152.77 259.30,152.75 257.94,152.73 256.60,152.70 255.27,152.65 253.94,152.59 248.70,152.37 246.70,152.33 244.69,152.31 242.68,152.33 240.67,152.36 238.65,152.42 236.63,152.50 232.58,152.71 228.53,152.96 224.47,153.23 216.35,153.77 209.50,154.14 202.67,154.44 189.01,155.01 189.01,129.81 194.33,129.93 199.64,130.11 204.95,130.36 210.25,130.69 213.62,130.95 216.98,131.24 223.71,131.89 237.17,133.24 250.53,134.44 257.21,135.07 260.55,135.42 263.88,135.80 266.36,136.11 268.83,136.43 273.78,137.14 278.72,137.91 283.66,138.73 283.51,141.45 283.37,144.17 283.24,146.89 283.13,149.66 283.02,152.44" fill="#4e79a7" fill-opacity="0.75" stroke="#222" stroke-width="0.25"/>
<text x="246.6" y="155.3" font-size="3.2" text-anchor="middle">FRENTE P ↻</text>
<polygon points="298.12,170.56 288.47,172.04 288.47,172.03 288.49,170.21 288.41,168.38 288.25,167.07 288.00,165.76 287.67,164.47 287.29,163.20 286.50,161.00 286.05,159.93 285.54,158.89 285.01,157.94 284.42,157.02 283.79,156.13 283.12,155.26 283.79,154.39 284.42,153.49 285.01,152.57 285.54,151.63 286.05,150.59 286.50,149.52 287.29,147.32 287.67,146.04 288.00,144.75 288.25,143.45 288.41,142.13 288.49,140.31 288.47,138.48 288.47,138.48 298.12,139.96 307.76,138.48 307.76,138.48 307.74,140.31 307.82,142.13 307.98,143.45 308.24,144.75 308.56,146.04 308.94,147.32 309.73,149.52 310.18,150.59 310.69,151.63 311.23,152.57 311.81,153.49 312.44,154.39 313.12,155.26 312.44,156.13 311.81,157.02 311.23,157.94 310.69,158.89 310.18,159.93 309.73,161.00 308.94,163.20 308.56,164.47 308.24,165.76 307.98,167.07 307.82,168.38 307.74,170.21 307.76,172.03 307.76,172.04" fill="#59a14f" fill-opacity="0.75" stroke="#222" stroke-width="0.25"/>
<text x="298.1" y="155.3" font-size="3.2" text-anchor="middle">CÓS COSTAS M</text>
<polygon points="300.73,124.27 291.09,125.75 291.09,125.75 291.08,124.02 290.97,122.30 290.79,121.06 290.53,119.83 290.20,118.61 289.82,117.41 289.04,115.35 288.59,114.34 288.09,113.37 287.57,112.48 287.00,111.62 285.73,109.97 287.00,108.33 287.57,107.47 288.09,106.58 288.59,105.61 289.04,104.60 289.82,102.54 290.20,101.33 290.53,100.12 290.79,98.89 290.97,97.65 291.08,95.93 291.09,94.20 291.09,94.20 300.73,95.67 310.38,94.20 310.38,94.20 310.39,95.93 310.50,97.65 310.68,98.89 310.94,100.12 311.27,101.33 311.65,102.54 312.43,104.60 312.88,105.61 313.38,106.58 313.90,107.47 314.47,108.33 315.73,109.97 314.47,111.62 313.90,112.48 313.38,113.37 312.88,114.34 312.43,115.35 311.65,117.41 311.27,118.61 310.94,119.83 310.68,121.06 310.50,122.30 310.39,124.02 310.38,125.75 310.38,125.75" fill="#59a14f" fill-opacity="0.75" stroke="#222" stroke-width="0.25"/>
<text x="300.7" y="110.0" font-size="3.2" text-anchor="middle">CÓS COSTAS P</text>
<polygon points="297.36,59.74 306.86,57.54 306.86,76.04 306.86,94.54 297.36,92.34 287.86,94.54 287.86,76.04 287.86,57.54" fill="#e15759" fill-opacity="0.75" stroke="#222" stroke-width="0.25"/>
<text x="297.4" y="76.0" font-size="3.2" text-anchor="middle">CÓS FRENTE G ↻</text>
<polygon points="316.56,59.70 326.06,57.50 326.06,76.00 326.06,94.50 316.56,92.30 307.06,94.50 307.06,76.00 307.06,57.50" fill="#e15759" fill-opacity="0.75" stroke="#222" stroke-width="0.25"/>
<text x="316.6" y="76.0" font-size="3.2" text-anchor="middle">CÓS FRENTE G ↻</text>
<polygon points="321.27,150.69 311.77,152.89 311.77,135.39 311.77,117.89 321.27,120.09 330.77,117.89 330.77,135.39 330.77,152.89" fill="#e15759" fill-opacity="0.75" stroke="#222" stroke-width="0.25"/>
<text x="321.3" y="135.4" font-size="3.2" text-anchor="middle">CÓS FRENTE M</text>
<text x="350.76689664" y="32" font-size="4.5">Parte 3: 114.1 cm · 76.8%</text>
<rect x="350.76689664" y="35" width="114.13" height="150.0" fill="#f4f4f4" stroke="#999" stroke-width="0.4"/>
<rect x="350.76689664" y="35" width="150" height="150.0" fill="none" stroke="#c00" stroke-width="0.3" stroke-dasharray="2 2"/>
<polygon points="351.53,61.50 351.44,58.56 351.34,55.62 351.22,52.67 351.10,49.79 350.96,46.90 350.80,44.02 355.84,43.19 360.89,42.42 365.94,41.71 371.01,41.07 374.41,40.69 377.81,40.34 384.63,39.71 398.28,38.51 412.02,37.15 418.89,36.50 422.33,36.21 425.77,35.96 428.48,35.78 431.18,35.63 436.60,35.38 442.03,35.21 447.45,35.10 447.45,61.30 433.62,60.72 426.69,60.42 419.76,60.04 411.54,59.50 403.31,58.97 399.21,58.76 397.17,58.68 395.12,58.62 393.08,58.58 391.05,58.57 389.01,58.58 386.99,58.63 385.66,58.67 384.34,58.73 381.67,58.85 378.99,58.96 377.62,58.99 376.25,59.01 374.81,59.02 373.40,59.12 372.71,59.22 372.04,59.39 371.39,59.62 370.77,59.94 370.24,60.32 369.82,60.79 369.65,61.12 369.53,61.50 369.65,61.88 369.82,62.22 370.24,62.69 370.77,63.06 371.39,63.38 372.04,63.62 372.71,63.78 373.40,63.89 374.81,63.98 376.25,63.99 377.62,64.01 378.99,64.04 380.33,64.09 381.67,64.15 386.99,64.38 389.01,64.42 391.05,64.44 393.08,64.42 395.12,64.38 397.17,64.32 399.21,64.25 403.31,64.04 407.42,63.78 411.54,63.51 419.76,62.96 426.69,62.59 433.62,62.28 447.45,61.70 447.45,87.90 442.03,87.79 436.60,87.62 431.18,87.38 425.77,87.05 422.33,86.79 418.89,86.50 412.02,85.85 398.28,84.49 384.63,83.29 377.81,82.66 374.41,82.31 371.01,81.93 368.47,81.63 365.94,81.30 360.89,80.59 355.84,79.81 350.80,78.99 350.96,76.10 351.10,73.22 351.22,70.33 351.34,67.39 351.44,64.44" fill="#4e79a7" fill-opacity="0.75" stroke="#222" stroke-width="0.25"/>
<text x="388.9" y="61.4" font-size="3.2" text-anchor="middle">FRENTE M</text>
<polygon points="352.90,94.47 354.38,94.25 355.83,93.93 357.18,93.53 358.49,93.02 359.77,92.43 361.02,91.75 362.22,90.97 363.35,90.11 364.38,89.15 365.28,88.07 366.05,86.85 366.68,85.55 367.23,84.19 367.72,82.81 368.09,81.71 371.97,82.47 375.87,83.18 379.77,83.86 383.67,84.49 387.17,85.02 390.68,85.52 394.18,85.99 397.70,86.42 400.94,86.78 404.18,87.12 407.42,87.43 410.67,87.70 413.91,87.95 417.17,88.17 420.42,88.35 423.67,88.51 426.93,88.64 430.19,88.74 433.46,88.81 436.72,88.85 439.99,88.86 443.27,88.84 446.54,88.79 449.82,88.71 449.82,120.21 439.31,119.75 428.82,119.19 414.46,118.21 400.10,117.17 383.58,116.05 375.32,115.47 367.06,114.81 359.11,114.09 351.17,113.30 350.98,111.61 350.86,109.92 350.80,108.16 350.83,106.39 350.92,104.62 351.08,102.86 351.40,100.57 351.84,98.30 352.32,96.38" fill="#f28e2b" fill-opacity="0.75" stroke="#222" stroke-width="0.25"/>
<text x="386.6" y="95.4" font-size="3.2" text-anchor="middle">COSTAS G</text>
<polygon points="447.73,140.07 446.24,140.28 444.79,140.60 443.45,141.01 442.13,141.51 440.85,142.11 439.60,142.79 438.40,143.56 437.27,144.43 436.24,145.39 435.34,146.46 434.57,147.68 433.94,148.99 433.40,150.35 432.91,151.73 432.54,152.83 428.65,152.07 424.76,151.35 420.86,150.68 416.95,150.04 413.45,149.51 409.95,149.01 406.44,148.55 402.93,148.12 399.69,147.75 396.45,147.42 393.20,147.11 389.96,146.83 386.71,146.59 383.46,146.37 380.20,146.18 376.95,146.02 373.69,145.89 370.43,145.80 367.16,145.73 363.90,145.69 360.63,145.68 357.36,145.69 354.08,145.74 350.80,145.82 350.80,114.32 361.31,114.78 371.81,115.35 386.16,116.32 400.52,117.36 417.04,118.48 425.30,119.07 433.56,119.72 441.51,120.45 449.45,121.24 449.64,122.92 449.77,124.61 449.82,126.38 449.80,128.15 449.70,129.91 449.54,131.68 449.22,133.97 448.78,136.23 448.30,138.16" fill="#f28e2b" fill-opacity="0.75" stroke="#222" stroke-width="0.25"/>
<text x="414.1" y="139.1" font-size="3.2" text-anchor="middle">COSTAS G ↻</text>
<polygon points="352.77,158.72 354.13,158.43 355.45,158.04 356.66,157.58 357.84,157.03 358.98,156.40 360.09,155.69 361.15,154.90 362.14,154.03 363.03,153.07 363.78,152.02 364.41,150.85 364.91,149.60 365.33,148.31 365.69,147.01 365.96,145.97 369.75,146.71 373.55,147.42 377.35,148.09 381.16,148.71 384.58,149.24 387.99,149.73 391.42,150.20 394.84,150.62 398.00,150.99 401.16,151.32 404.33,151.63 407.49,151.90 410.66,152.15 413.83,152.37 417.01,152.56 420.18,152.72 423.36,152.85 426.55,152.96 429.73,153.03 432.92,153.08 436.11,153.09 439.30,153.08 442.50,153.04 445.69,152.97 445.69,182.47 435.61,182.00 425.54,181.43 411.77,180.45 397.99,179.41 382.14,178.29 374.21,177.71 366.29,177.05 358.67,176.34 351.04,175.56 350.89,174.05 350.80,172.53 350.77,170.95 350.80,169.37 350.90,167.79 351.07,166.22 351.38,164.17 351.79,162.15 352.24,160.43" fill="#f28e2b" fill-opacity="0.75" stroke="#222" stroke-width="0.25"/>
<text x="384.6" y="159.1" font-size="3.2" text-anchor="middle">COSTAS P</text>
<polygon points="455.39,142.80 464.89,140.60 464.89,157.10 464.89,173.60 455.39,171.40 445.89,173.60 445.89,157.10 445.89,140.60" fill="#e15759" fill-opacity="0.75" stroke="#222" stroke-width="0.25"/>
<text x="455.4" y="157.1" font-size="3.2" text-anchor="middle">CÓS FRENTE P ↻</text>
<text x="484.89336125" y="32" font-size="4.5">Parte 4: 99.0 cm · 77.5%</text>
<rect x="484.89336125" y="35" width="99.01" height="150.0" fill="#f4f4f4" stroke="#999" stroke-width="0.4"/>
<rect x="484.89336125" y="35" width="150" height="150.0" fill="none" stroke="#c00" stroke-width="0.3" stroke-dasharray="2 2"/>
<polygon points="581.81,60.85 580.33,61.06 578.88,61.38 577.54,61.79 576.22,62.29 574.94,62.89 573.69,63.57 572.49,64.34 571.36,65.20 570.33,66.17 569.43,67.24 568.66,68.46 568.03,69.77 567.49,71.13 567.00,72.51 566.63,73.61 562.74,72.85 558.85,72.13 554.95,71.46 551.04,70.82 547.54,70.29 544.04,69.79 540.53,69.33 537.02,68.90 533.78,68.53 530.54,68.20 527.29,67.89 524.05,67.61 520.80,67.37 517.55,67.15 514.29,66.96 511.04,66.80 507.78,66.67 504.52,66.57 501.25,66.50 497.99,66.46 494.72,66.45 491.45,66.47 488.17,66.52 484.89,66.60 484.89,35.10 495.40,35.56 505.90,36.13 520.25,37.10 534.61,38.14 551.13,39.26 559.39,39.85 567.65,40.50 575.60,41.22 583.54,42.02 583.73,43.70 583.86,45.39 583.91,47.16 583.89,48.93 583.79,50.69 583.63,52.45 583.31,54.74 582.87,57.01 582.39,58.94" fill="#f28e2b" fill-opacity="0.75" stroke="#222" stroke-width="0.25"/>
<text x="548.2" y="59.9" font-size="3.2" text-anchor="middle">COSTAS G ↻</text>
<polygon points="579.81,93.08 578.39,93.33 577.01,93.69 575.73,94.12 574.48,94.65 573.27,95.26 572.10,95.96 570.97,96.74 569.91,97.61 568.95,98.57 568.12,99.63 567.42,100.83 566.85,102.10 566.37,103.43 565.95,104.77 565.63,105.84 561.79,105.09 557.94,104.37 554.09,103.70 550.23,103.07 546.77,102.54 543.31,102.05 539.85,101.59 536.38,101.16 533.18,100.79 529.98,100.46 526.78,100.15 523.57,99.87 520.36,99.63 517.15,99.41 513.94,99.22 510.72,99.06 507.50,98.93 504.28,98.83 501.05,98.76 497.83,98.71 494.60,98.70 491.37,98.71 488.13,98.76 484.89,98.83 484.89,68.33 495.19,68.80 505.47,69.37 519.54,70.34 533.60,71.38 549.79,72.50 557.88,73.09 565.97,73.74 573.76,74.46 581.54,75.25 581.72,76.85 581.82,78.45 581.86,80.12 581.83,81.80 581.74,83.47 581.57,85.14 581.26,87.31 580.83,89.45 580.37,91.28" fill="#f28e2b" fill-opacity="0.75" stroke="#222" stroke-width="0.25"/>
<text x="547.1" y="92.4" font-size="3.2" text-anchor="middle">COSTAS M ↻</text>
<polygon points="581.81,126.53 580.33,126.74 578.88,127.06 577.54,127.47 576.22,127.97 574.94,128.57 573.69,129.25 572.49,130.02 571.36,130.88 570.33,131.85 569.43,132.92 568.66,134.14 568.03,135.45 567.49,136.81 567.00,138.19 566.63,139.29 562.74,138.53 558.85,137.81 554.95,137.14 551.04,136.50 547.54,135.97 544.04,135.47 540.53,135.01 537.02,134.58 533.78,134.21 530.54,133.87 527.29,133.57 524.05,133.29 520.80,133.04 517.55,132.83 514.29,132.64 511.04,132.48 507.78,132.35 504.52,132.25 501.25,132.18 497.99,132.14 494.72,132.13 491.45,132.15 488.17,132.20 484.89,132.28 484.89,100.78 495.40,101.24 505.90,101.81 520.25,102.78 534.61,103.82 551.13,104.94 559.39,105.53 567.65,106.18 575.60,106.90 583.54,107.70 583.73,109.38 583.86,111.07 583.91,112.84 583.89,114.61 583.79,116.37 583.63,118.13 583.31,120.42 582.87,122.69 582.39,124.62" fill="#f28e2b" fill-opacity="0.75" stroke="#222" stroke-width="0.25"/>
<text x="548.2" y="125.6" font-size="3.2" text-anchor="middle">COSTAS G ↻</text>
<polygon points="581.81,159.90 580.33,160.12 578.88,160.44 577.54,160.84 576.22,161.35 574.94,161.94 573.69,162.63 572.49,163.40 571.36,164.26 570.33,165.22 569.43,166.30 568.66,167.52 568.03,168.83 567.49,170.19 567.00,171.56 566.63,172.66 562.74,171.90 558.85,171.19 554.95,170.51 551.04,169.88 547.54,169.35 544.04,168.85 540.53,168.38 537.02,167.95 533.78,167.59 530.54,167.25 527.29,166.94 524.05,166.67 520.80,166.42 517.55,166.20 514.29,166.02 511.04,165.86 507.78,165.73 504.52,165.63 501.25,165.56 497.99,165.52 494.72,165.51 491.45,165.53 488.17,165.58 484.89,165.66 484.89,134.16 495.40,134.62 505.90,135.18 520.25,136.16 534.61,137.20 551.13,138.32 559.39,138.90 567.65,139.56 575.60,140.28 583.54,141.07 583.73,142.76 583.86,144.45 583.91,146.21 583.89,147.98 583.79,149.75 583.63,151.51 583.31,153.80 582.87,156.07 582.39,158.00" fill="#f28e2b" fill-opacity="0.75" stroke="#222" stroke-width="0.25"/>
<text x="548.2" y="159.0" font-size="3.2" text-anchor="middle">COSTAS G ↻</text>
<text x="603.90797281" y="32" font-size="4.5">Parte 5: 97.0 cm · 74.9%</text>
<rect x="603.90797281" y="35" width="96.97" height="150.0" fill="#f4f4f4" stroke="#999" stroke-width="0.4"/>
<rect x="603.90797281" y="35" width="150" height="150.0" fill="none" stroke="#c00" stroke-width="0.3" stroke-dasharray="2 2"/>
<polygon points="698.83,59.85 697.41,60.10 696.02,60.46 694.75,60.89 693.50,61.42 692.29,62.03 691.11,62.73 689.98,63.51 688.92,64.37 687.96,65.34 687.13,66.40 686.43,67.59 685.87,68.87 685.39,70.20 684.96,71.54 684.64,72.61 680.80,71.85 676.96,71.14 673.10,70.47 669.25,69.84 665.79,69.31 662.33,68.82 658.86,68.35 655.39,67.92 652.20,67.56 648.99,67.22 645.79,66.92 642.58,66.64 639.38,66.39 636.16,66.17 632.95,65.99 629.73,65.83 626.52,65.70 623.29,65.60 620.07,65.52 616.84,65.48 613.61,65.47 610.38,65.48 607.15,65.53 603.91,65.60 603.91,35.10 614.20,35.57 624.49,36.14 638.55,37.11 652.62,38.15 668.81,39.27 676.90,39.86 684.99,40.51 692.77,41.23 700.56,42.02 700.73,43.61 700.84,45.22 700.88,46.89 700.85,48.56 700.75,50.24 700.59,51.90 700.27,54.07 699.85,56.22 699.38,58.04" fill="#f28e2b" fill-opacity="0.75" stroke="#222" stroke-width="0.25"/>
<text x="666.1" y="59.2" font-size="3.2" text-anchor="middle">COSTAS M ↻</text>
<polygon points="698.83,92.17 697.41,92.42 696.02,92.78 694.75,93.21 693.50,93.74 692.29,94.35 691.11,95.05 689.98,95.83 688.92,96.70 687.96,97.66 687.13,98.72 686.43,99.91 685.87,101.19 685.39,102.52 684.96,103.86 684.64,104.93 680.80,104.17 676.96,103.46 673.10,102.79 669.25,102.16 665.79,101.63 662.33,101.14 658.86,100.67 655.39,100.24 652.20,99.88 648.99,99.54 645.79,99.24 642.58,98.96 639.38,98.71 636.16,98.50 632.95,98.31 629.73,98.15 626.52,98.02 623.29,97.92 620.07,97.84 616.84,97.80 613.61,97.79 610.38,97.80 607.15,97.85 603.91,97.92 603.91,67.42 614.20,67.89 624.49,68.46 638.55,69.43 652.62,70.47 668.81,71.59 676.90,72.18 684.99,72.83 692.77,73.55 700.56,74.34 700.73,75.94 700.84,77.54 700.88,79.21 700.85,80.88 700.75,82.56 700.59,84.23 700.27,86.39 699.85,88.54 699.38,90.36" fill="#f28e2b" fill-opacity="0.75" stroke="#222" stroke-width="0.25"/>
<text x="666.1" y="91.5" font-size="3.2" text-anchor="middle">COSTAS M ↻</text>
<polygon points="698.83,124.49 697.41,124.74 696.02,125.10 694.75,125.53 693.50,126.06 692.29,126.67 691.11,127.37 689.98,128.15 688.92,129.02 687.96,129.98 687.13,131.04 686.43,132.23 685.87,133.51 685.39,134.84 684.96,136.18 684.64,137.25 680.80,136.49 676.96,135.78 673.10,135.11 669.25,134.48 665.79,133.95 662.33,133.46 658.86,132.99 655.39,132.56 652.20,132.20 648.99,131.86 645.79,131.56 642.58,131.28 639.38,131.03 636.16,130.82 632.95,130.63 629.73,130.47 626.52,130.34 623.29,130.24 620.07,130.16 616.84,130.12 613.61,130.11 610.38,130.12 607.15,130.17 603.91,130.24 603.91,99.74 614.20,100.21 624.49,100.78 638.55,101.75 652.62,102.79 668.81,103.91 676.90,104.50 684.99,105.15 692.77,105.87 700.56,106.66 700.73,108.26 700.84,109.86 700.88,111.53 700.85,113.20 700.75,114.88 700.59,116.55 700.27,118.71 699.85,120.86 699.38,122.68" fill="#f28e2b" fill-opacity="0.75" stroke="#222" stroke-width="0.25"/>
<text x="666.1" y="123.8" font-size="3.2" text-anchor="middle">COSTAS M ↻</text>
<polygon points="696.83,155.65 695.47,155.94 694.15,156.33 692.94,156.79 691.76,157.34 690.62,157.97 689.51,158.68 688.45,159.47 687.46,160.34 686.58,161.30 685.82,162.35 685.19,163.52 684.69,164.77 684.27,166.06 683.91,167.37 683.64,168.40 679.85,167.66 676.05,166.95 672.25,166.28 668.44,165.66 665.02,165.13 661.61,164.64 658.18,164.18 654.76,163.75 651.60,163.38 648.44,163.05 645.27,162.74 642.11,162.47 638.94,162.22 635.77,162.00 632.59,161.81 629.42,161.65 626.24,161.52 623.06,161.41 619.87,161.34 616.68,161.29 613.49,161.28 610.30,161.29 607.11,161.33 603.91,161.40 603.91,131.90 613.99,132.37 624.06,132.94 637.84,133.92 651.61,134.96 667.46,136.08 675.39,136.66 683.31,137.32 690.94,138.03 698.56,138.82 698.71,140.33 698.80,141.84 698.83,143.42 698.80,145.00 698.70,146.58 698.53,148.15 698.22,150.20 697.81,152.22 697.36,153.94" fill="#f28e2b" fill-opacity="0.75" stroke="#222" stroke-width="0.25"/>
<text x="665.0" y="155.3" font-size="3.2" text-anchor="middle">COSTAS P ↻</text>
</svg>